<svg width="23" height="24" viewBox="0 0 23 24" fill="none" xmlns="http://www.w3.org/2000/svg">
<path d="M10.1875 12.4375H11.9375V18.125M1.875 8.5H21.125M15.875 5V1.5M7.125 5V1.5M3.625 22.5H19.375C19.8391 22.5 20.2842 22.3156 20.6124 21.9874C20.9406 21.6592 21.125 21.2141 21.125 20.75V5C21.125 4.53587 20.9406 4.09075 20.6124 3.76256C20.2842 3.43437 19.8391 3.25 19.375 3.25H3.625C3.16087 3.25 2.71575 3.43437 2.38756 3.76256C2.05937 4.09075 1.875 4.53587 1.875 5V20.75C1.875 21.2141 2.05937 21.6592 2.38756 21.9874C2.71575 22.3156 3.16087 22.5 3.625 22.5Z" stroke="#D9D9D9" stroke-width="2" stroke-linecap="round" stroke-linejoin="round"/>
</svg>
