<svg width="23" height="23" viewBox="0 0 23 23" fill="none" xmlns="http://www.w3.org/2000/svg">
<path d="M11.5 21.3333H22M15 3.83333L18.5 7.33333M16.75 2.08333C17.2141 1.6192 17.8436 1.35846 18.5 1.35846C18.825 1.35846 19.1468 1.42247 19.4471 1.54685C19.7474 1.67122 20.0202 1.85352 20.25 2.08333C20.4798 2.31315 20.6621 2.58597 20.7865 2.88624C20.9109 3.18651 20.9749 3.50833 20.9749 3.83333C20.9749 4.15834 20.9109 4.48016 20.7865 4.78043C20.6621 5.08069 20.4798 5.35352 20.25 5.58333L5.66667 20.1667L1 21.3333L2.16667 16.6667L16.75 2.08333Z" stroke="#D9D9D9" stroke-width="2" stroke-linecap="round" stroke-linejoin="round"/>
</svg>
